<svg xmlns="http://www.w3.org/2000/svg" viewBox="0 0 16 16" shape-rendering="crispEdges">
<!-- Santi - 16x16 pixel art Miniature Pinscher -->
<!-- Each pixel is 1x1 in the viewBox, scales up crisp -->

<!-- Row 0 -->
<rect x="4" y="0" width="1" height="1" fill="#1a1a1a"/>
<rect x="5" y="0" width="1" height="1" fill="#1a1a1a"/>
<rect x="10" y="0" width="1" height="1" fill="#1a1a1a"/>
<rect x="11" y="0" width="1" height="1" fill="#1a1a1a"/>

<!-- Row 1: ears + crown -->
<rect x="3" y="1" width="1" height="1" fill="#1a1a1a"/>
<rect x="4" y="1" width="1" height="1" fill="#1a1a1a"/>
<rect x="6" y="1" width="1" height="1" fill="#FFD700"/>
<rect x="8" y="1" width="1" height="1" fill="#FFD700"/>
<rect x="11" y="1" width="1" height="1" fill="#1a1a1a"/>
<rect x="12" y="1" width="1" height="1" fill="#1a1a1a"/>

<!-- Row 2: ears + top of head + crown base -->
<rect x="3" y="2" width="1" height="1" fill="#1a1a1a"/>
<rect x="4" y="2" width="1" height="1" fill="#2a1a0a"/>
<rect x="5" y="2" width="1" height="1" fill="#1a1a1a"/>
<rect x="6" y="2" width="1" height="1" fill="#FFD700"/>
<rect x="7" y="2" width="1" height="1" fill="#FFD700"/>
<rect x="8" y="2" width="1" height="1" fill="#FFD700"/>
<rect x="9" y="2" width="1" height="1" fill="#FFD700"/>
<rect x="10" y="2" width="1" height="1" fill="#1a1a1a"/>
<rect x="11" y="2" width="1" height="1" fill="#2a1a0a"/>
<rect x="12" y="2" width="1" height="1" fill="#1a1a1a"/>

<!-- Row 3: head -->
<rect x="4" y="3" width="1" height="1" fill="#1a1a1a"/>
<rect x="5" y="3" width="1" height="1" fill="#1a1a1a"/>
<rect x="6" y="3" width="1" height="1" fill="#1a1a1a"/>
<rect x="7" y="3" width="1" height="1" fill="#1a1a1a"/>
<rect x="8" y="3" width="1" height="1" fill="#1a1a1a"/>
<rect x="9" y="3" width="1" height="1" fill="#1a1a1a"/>
<rect x="10" y="3" width="1" height="1" fill="#1a1a1a"/>
<rect x="11" y="3" width="1" height="1" fill="#1a1a1a"/>

<!-- Row 4: eyebrow rust marks + eyes -->
<rect x="4" y="4" width="1" height="1" fill="#1a1a1a"/>
<rect x="5" y="4" width="1" height="1" fill="#8B4513"/>
<rect x="6" y="4" width="1" height="1" fill="#FFFFFF"/>
<rect x="7" y="4" width="1" height="1" fill="#1a1a1a"/>
<rect x="8" y="4" width="1" height="1" fill="#1a1a1a"/>
<rect x="9" y="4" width="1" height="1" fill="#FFFFFF"/>
<rect x="10" y="4" width="1" height="1" fill="#8B4513"/>
<rect x="11" y="4" width="1" height="1" fill="#1a1a1a"/>

<!-- Row 5: cheeks + nose -->
<rect x="4" y="5" width="1" height="1" fill="#8B4513"/>
<rect x="5" y="5" width="1" height="1" fill="#CD853F"/>
<rect x="6" y="5" width="1" height="1" fill="#CD853F"/>
<rect x="7" y="5" width="1" height="1" fill="#0a0a0a"/>
<rect x="8" y="5" width="1" height="1" fill="#0a0a0a"/>
<rect x="9" y="5" width="1" height="1" fill="#CD853F"/>
<rect x="10" y="5" width="1" height="1" fill="#CD853F"/>
<rect x="11" y="5" width="1" height="1" fill="#8B4513"/>

<!-- Row 6: muzzle + tongue -->
<rect x="5" y="6" width="1" height="1" fill="#CD853F"/>
<rect x="6" y="6" width="1" height="1" fill="#D2A679"/>
<rect x="7" y="6" width="1" height="1" fill="#E75480"/>
<rect x="8" y="6" width="1" height="1" fill="#E75480"/>
<rect x="9" y="6" width="1" height="1" fill="#D2A679"/>
<rect x="10" y="6" width="1" height="1" fill="#CD853F"/>

<!-- Row 7: chin + neck -->
<rect x="5" y="7" width="1" height="1" fill="#1a1a1a"/>
<rect x="6" y="7" width="1" height="1" fill="#CD853F"/>
<rect x="7" y="7" width="1" height="1" fill="#CD853F"/>
<rect x="8" y="7" width="1" height="1" fill="#CD853F"/>
<rect x="9" y="7" width="1" height="1" fill="#CD853F"/>
<rect x="10" y="7" width="1" height="1" fill="#1a1a1a"/>

<!-- Row 8: chest -->
<rect x="4" y="8" width="1" height="1" fill="#1a1a1a"/>
<rect x="5" y="8" width="1" height="1" fill="#1a1a1a"/>
<rect x="6" y="8" width="1" height="1" fill="#8B4513"/>
<rect x="7" y="8" width="1" height="1" fill="#CD853F"/>
<rect x="8" y="8" width="1" height="1" fill="#CD853F"/>
<rect x="9" y="8" width="1" height="1" fill="#8B4513"/>
<rect x="10" y="8" width="1" height="1" fill="#1a1a1a"/>
<rect x="11" y="8" width="1" height="1" fill="#1a1a1a"/>

<!-- Row 9: body -->
<rect x="3" y="9" width="1" height="1" fill="#1a1a1a"/>
<rect x="4" y="9" width="1" height="1" fill="#1a1a1a"/>
<rect x="5" y="9" width="1" height="1" fill="#8B4513"/>
<rect x="6" y="9" width="1" height="1" fill="#8B4513"/>
<rect x="7" y="9" width="1" height="1" fill="#CD853F"/>
<rect x="8" y="9" width="1" height="1" fill="#CD853F"/>
<rect x="9" y="9" width="1" height="1" fill="#8B4513"/>
<rect x="10" y="9" width="1" height="1" fill="#8B4513"/>
<rect x="11" y="9" width="1" height="1" fill="#1a1a1a"/>
<rect x="12" y="9" width="1" height="1" fill="#1a1a1a"/>

<!-- Row 10: body + tail start -->
<rect x="3" y="10" width="1" height="1" fill="#1a1a1a"/>
<rect x="4" y="10" width="1" height="1" fill="#8B4513"/>
<rect x="5" y="10" width="1" height="1" fill="#8B4513"/>
<rect x="6" y="10" width="1" height="1" fill="#CD853F"/>
<rect x="7" y="10" width="1" height="1" fill="#CD853F"/>
<rect x="8" y="10" width="1" height="1" fill="#CD853F"/>
<rect x="9" y="10" width="1" height="1" fill="#CD853F"/>
<rect x="10" y="10" width="1" height="1" fill="#8B4513"/>
<rect x="11" y="10" width="1" height="1" fill="#8B4513"/>
<rect x="12" y="10" width="1" height="1" fill="#1a1a1a"/>
<rect x="13" y="10" width="1" height="1" fill="#1a1a1a"/>

<!-- Row 11: lower body + tail -->
<rect x="3" y="11" width="1" height="1" fill="#1a1a1a"/>
<rect x="4" y="11" width="1" height="1" fill="#1a1a1a"/>
<rect x="5" y="11" width="1" height="1" fill="#8B4513"/>
<rect x="6" y="11" width="1" height="1" fill="#CD853F"/>
<rect x="7" y="11" width="1" height="1" fill="#CD853F"/>
<rect x="8" y="11" width="1" height="1" fill="#CD853F"/>
<rect x="9" y="11" width="1" height="1" fill="#CD853F"/>
<rect x="10" y="11" width="1" height="1" fill="#8B4513"/>
<rect x="11" y="11" width="1" height="1" fill="#1a1a1a"/>
<rect x="12" y="11" width="1" height="1" fill="#1a1a1a"/>
<rect x="13" y="11" width="1" height="1" fill="#1a1a1a"/>

<!-- Row 12: legs -->
<rect x="4" y="12" width="1" height="1" fill="#1a1a1a"/>
<rect x="5" y="12" width="1" height="1" fill="#1a1a1a"/>
<rect x="6" y="12" width="1" height="1" fill="#CD853F"/>
<rect x="7" y="12" width="1" height="1" fill="#CD853F"/>
<rect x="8" y="12" width="1" height="1" fill="#CD853F"/>
<rect x="9" y="12" width="1" height="1" fill="#CD853F"/>
<rect x="10" y="12" width="1" height="1" fill="#1a1a1a"/>
<rect x="11" y="12" width="1" height="1" fill="#1a1a1a"/>

<!-- Row 13: legs -->
<rect x="4" y="13" width="1" height="1" fill="#1a1a1a"/>
<rect x="5" y="13" width="1" height="1" fill="#8B4513"/>
<rect x="10" y="13" width="1" height="1" fill="#8B4513"/>
<rect x="11" y="13" width="1" height="1" fill="#1a1a1a"/>

<!-- Row 14: lower legs -->
<rect x="4" y="14" width="1" height="1" fill="#1a1a1a"/>
<rect x="5" y="14" width="1" height="1" fill="#1a1a1a"/>
<rect x="10" y="14" width="1" height="1" fill="#1a1a1a"/>
<rect x="11" y="14" width="1" height="1" fill="#1a1a1a"/>

<!-- Row 15: paws -->
<rect x="3" y="15" width="1" height="1" fill="#CD853F"/>
<rect x="4" y="15" width="1" height="1" fill="#CD853F"/>
<rect x="5" y="15" width="1" height="1" fill="#CD853F"/>
<rect x="10" y="15" width="1" height="1" fill="#CD853F"/>
<rect x="11" y="15" width="1" height="1" fill="#CD853F"/>
<rect x="12" y="15" width="1" height="1" fill="#CD853F"/>
</svg>
